<svg width="84" height="47" viewBox="0 0 84 47" fill="none" xmlns="http://www.w3.org/2000/svg">
<path d="M50.968 45.136C51.16 45.136 51.256 45.28 51.256 45.568C51.256 45.856 51.16 46 50.968 46C50.104 46 48.712 45.952 46.792 45.856C44.968 45.76 43.624 45.712 42.76 45.712C41.752 45.712 40.432 45.76 38.8 45.856C37.264 45.952 36.112 46 35.344 46C35.152 46 35.056 45.856 35.056 45.568C35.056 45.28 35.152 45.136 35.344 45.136C37.312 45.136 38.728 44.968 39.592 44.632C40.456 44.248 40.888 43.624 40.888 42.76C40.888 42.088 40.624 41.152 40.096 39.952L31.528 21.592H17.776L11.296 37.144C10.624 38.776 10.288 40.12 10.288 41.176C10.288 42.568 10.864 43.576 12.016 44.2C13.168 44.824 14.968 45.136 17.416 45.136C17.656 45.136 17.776 45.28 17.776 45.568C17.776 45.856 17.656 46 17.416 46C16.552 46 15.304 45.952 13.672 45.856C11.848 45.76 10.264 45.712 8.92 45.712C7.72 45.712 6.304 45.76 4.672 45.856C3.232 45.952 2.056 46 1.144 46C0.904 46 0.784 45.856 0.784 45.568C0.784 45.28 0.904 45.136 1.144 45.136C2.488 45.136 3.616 44.896 4.528 44.416C5.488 43.936 6.376 43.072 7.192 41.824C8.056 40.576 8.968 38.8 9.928 36.496L24.976 0.279996C25.072 0.135998 25.216 0.0639992 25.408 0.0639992C25.648 0.0639992 25.792 0.135998 25.84 0.279996L42.544 36.136C43.648 38.584 44.632 40.456 45.496 41.752C46.36 43 47.2 43.888 48.016 44.416C48.88 44.896 49.864 45.136 50.968 45.136ZM18.352 20.224H30.952L24.256 5.968L18.352 20.224ZM42.1294 46.288C40.7854 46.288 39.2734 46.216 37.5934 46.072C37.0174 46.024 36.2974 45.976 35.4334 45.928C34.5694 45.88 33.5854 45.856 32.4814 45.856L28.2334 45.928C27.4654 45.976 26.4094 46 25.0654 46C24.9694 46 24.9214 45.856 24.9214 45.568C24.9214 45.28 24.9694 45.136 25.0654 45.136C26.7454 45.136 27.9694 45.016 28.7374 44.776C29.5054 44.536 30.0334 44.08 30.3214 43.408C30.6094 42.688 30.7534 41.608 30.7534 40.168V18.136C30.7534 16.696 30.6094 15.64 30.3214 14.968C30.0334 14.296 29.5054 13.84 28.7374 13.6C27.9694 13.312 26.7694 13.168 25.1374 13.168C25.0414 13.168 24.9934 13.024 24.9934 12.736C24.9934 12.448 25.0414 12.304 25.1374 12.304L28.3054 12.376C30.0334 12.472 31.4254 12.52 32.4814 12.52C33.9694 12.52 35.4574 12.448 36.9454 12.304C38.8654 12.208 40.3054 12.16 41.2654 12.16C45.2974 12.16 48.7774 12.88 51.7054 14.32C54.6334 15.76 56.8654 17.752 58.4014 20.296C59.9374 22.84 60.7054 25.72 60.7054 28.936C60.7054 32.248 59.9134 35.224 58.3294 37.864C56.7454 40.504 54.5374 42.568 51.7054 44.056C48.9214 45.544 45.7294 46.288 42.1294 46.288ZM41.2654 45.424C45.9694 45.424 49.6414 44.08 52.2814 41.392C54.9694 38.656 56.3134 34.768 56.3134 29.728C56.3134 24.88 55.0174 20.896 52.4254 17.776C49.8334 14.608 45.9214 13.024 40.6894 13.024C38.3374 13.024 36.6814 13.408 35.7214 14.176C34.8094 14.944 34.3534 16.312 34.3534 18.28V39.376C34.3534 41.584 34.8094 43.144 35.7214 44.056C36.6814 44.968 38.5294 45.424 41.2654 45.424ZM82.8353 1C82.9793 1 83.0513 1.144 83.0513 1.432C83.0513 1.72 82.9793 1.864 82.8353 1.864C81.2033 1.864 79.8353 2.224 78.7313 2.944C77.6753 3.616 76.7393 4.912 75.9233 6.832L60.0833 45.928C60.0353 46.12 59.7713 46.216 59.2913 46.216C58.9073 46.216 58.6433 46.12 58.4993 45.928L40.7153 6.976C39.8993 5.104 39.0113 3.784 38.0513 3.016C37.1393 2.248 35.9393 1.864 34.4513 1.864C34.3073 1.864 34.2353 1.72 34.2353 1.432C34.2353 1.144 34.3073 1 34.4513 1L37.5473 1.072C38.8913 1.168 39.8993 1.216 40.5713 1.216C41.9633 1.216 43.6193 1.168 45.5393 1.072L48.6353 1C48.7793 1 48.8513 1.144 48.8513 1.432C48.8513 1.72 48.7793 1.864 48.6353 1.864C47.1473 1.864 46.0193 2.032 45.2513 2.368C44.5313 2.704 44.1713 3.28 44.1713 4.096C44.1713 4.672 44.3873 5.392 44.8193 6.256L60.5153 40.888L74.4113 6.4C74.7473 5.584 74.9153 4.888 74.9153 4.312C74.9153 3.448 74.4593 2.824 73.5473 2.44C72.6833 2.056 71.2433 1.864 69.2273 1.864C69.0833 1.864 69.0113 1.72 69.0113 1.432C69.0113 1.144 69.0833 1 69.2273 1L72.1073 1.072C73.7393 1.168 75.1793 1.216 76.4273 1.216C77.4353 1.216 78.5633 1.168 79.8113 1.072L82.8353 1Z" fill="white"/>
</svg>
