<svg width="74" height="42" viewBox="0 0 74 42" fill="none" xmlns="http://www.w3.org/2000/svg">
<path d="M45.416 40.232C45.5867 40.232 45.672 40.36 45.672 40.616C45.672 40.872 45.5867 41 45.416 41C44.648 41 43.4107 40.9573 41.704 40.872C40.0827 40.7867 38.888 40.744 38.12 40.744C37.224 40.744 36.0507 40.7867 34.6 40.872C33.2347 40.9573 32.2107 41 31.528 41C31.3573 41 31.272 40.872 31.272 40.616C31.272 40.36 31.3573 40.232 31.528 40.232C33.2773 40.232 34.536 40.0827 35.304 39.784C36.072 39.4427 36.456 38.888 36.456 38.12C36.456 37.5227 36.2213 36.6907 35.752 35.624L28.136 19.304H15.912L10.152 33.128C9.55467 34.5787 9.256 35.7733 9.256 36.712C9.256 37.9493 9.768 38.8453 10.792 39.4C11.816 39.9547 13.416 40.232 15.592 40.232C15.8053 40.232 15.912 40.36 15.912 40.616C15.912 40.872 15.8053 41 15.592 41C14.824 41 13.7147 40.9573 12.264 40.872C10.6427 40.7867 9.23467 40.744 8.04 40.744C6.97333 40.744 5.71467 40.7867 4.264 40.872C2.984 40.9573 1.93867 41 1.128 41C0.914667 41 0.808 40.872 0.808 40.616C0.808 40.36 0.914667 40.232 1.128 40.232C2.32267 40.232 3.32533 40.0187 4.136 39.592C4.98933 39.1653 5.77867 38.3973 6.504 37.288C7.272 36.1787 8.08267 34.6 8.936 32.552L22.312 0.359997C22.3973 0.231998 22.5253 0.167999 22.696 0.167999C22.9093 0.167999 23.0373 0.231998 23.08 0.359997L37.928 32.232C38.9093 34.408 39.784 36.072 40.552 37.224C41.32 38.3333 42.0667 39.1227 42.792 39.592C43.56 40.0187 44.4347 40.232 45.416 40.232ZM16.424 18.088H27.624L21.672 5.416L16.424 18.088ZM37.5595 41.256C36.3648 41.256 35.0208 41.192 33.5275 41.064C33.0155 41.0213 32.3755 40.9787 31.6075 40.936C30.8395 40.8933 29.9648 40.872 28.9835 40.872L25.2075 40.936C24.5248 40.9787 23.5862 41 22.3915 41C22.3062 41 22.2635 40.872 22.2635 40.616C22.2635 40.36 22.3062 40.232 22.3915 40.232C23.8848 40.232 24.9728 40.1253 25.6555 39.912C26.3382 39.6987 26.8075 39.2933 27.0635 38.696C27.3195 38.056 27.4475 37.096 27.4475 35.816V16.232C27.4475 14.952 27.3195 14.0133 27.0635 13.416C26.8075 12.8187 26.3382 12.4133 25.6555 12.2C24.9728 11.944 23.9062 11.816 22.4555 11.816C22.3702 11.816 22.3275 11.688 22.3275 11.432C22.3275 11.176 22.3702 11.048 22.4555 11.048L25.2715 11.112C26.8075 11.1973 28.0448 11.24 28.9835 11.24C30.3062 11.24 31.6288 11.176 32.9515 11.048C34.6582 10.9627 35.9382 10.92 36.7915 10.92C40.3755 10.92 43.4688 11.56 46.0715 12.84C48.6742 14.12 50.6582 15.8907 52.0235 18.152C53.3888 20.4133 54.0715 22.9733 54.0715 25.832C54.0715 28.776 53.3675 31.4213 51.9595 33.768C50.5515 36.1147 48.5888 37.9493 46.0715 39.272C43.5968 40.5947 40.7595 41.256 37.5595 41.256ZM36.7915 40.488C40.9728 40.488 44.2368 39.2933 46.5835 36.904C48.9728 34.472 50.1675 31.016 50.1675 26.536C50.1675 22.2267 49.0155 18.6853 46.7115 15.912C44.4075 13.096 40.9302 11.688 36.2795 11.688C34.1888 11.688 32.7168 12.0293 31.8635 12.712C31.0528 13.3947 30.6475 14.6107 30.6475 16.36V35.112C30.6475 37.0747 31.0528 38.4613 31.8635 39.272C32.7168 40.0827 34.3595 40.488 36.7915 40.488ZM73.7425 1C73.8705 1 73.9345 1.128 73.9345 1.384C73.9345 1.64 73.8705 1.768 73.7425 1.768C72.2918 1.768 71.0758 2.088 70.0945 2.728C69.1558 3.32533 68.3238 4.47733 67.5985 6.184L53.5185 40.936C53.4758 41.1067 53.2412 41.192 52.8145 41.192C52.4732 41.192 52.2385 41.1067 52.1105 40.936L36.3025 6.312C35.5772 4.648 34.7878 3.47467 33.9345 2.792C33.1238 2.10933 32.0572 1.768 30.7345 1.768C30.6065 1.768 30.5425 1.64 30.5425 1.384C30.5425 1.128 30.6065 1 30.7345 1L33.4865 1.064C34.6812 1.14933 35.5772 1.192 36.1745 1.192C37.4118 1.192 38.8838 1.14933 40.5905 1.064L43.3425 1C43.4705 1 43.5345 1.128 43.5345 1.384C43.5345 1.64 43.4705 1.768 43.3425 1.768C42.0198 1.768 41.0172 1.91733 40.3345 2.216C39.6945 2.51466 39.3745 3.02666 39.3745 3.752C39.3745 4.264 39.5665 4.904 39.9505 5.672L53.9025 36.456L66.2545 5.8C66.5532 5.07467 66.7025 4.456 66.7025 3.944C66.7025 3.176 66.2972 2.62133 65.4865 2.28C64.7185 1.93866 63.4385 1.768 61.6465 1.768C61.5185 1.768 61.4545 1.64 61.4545 1.384C61.4545 1.128 61.5185 1 61.6465 1L64.2065 1.064C65.6572 1.14933 66.9372 1.192 68.0465 1.192C68.9425 1.192 69.9452 1.14933 71.0545 1.064L73.7425 1Z" fill="#131313"/>
</svg>
