<svg width="16" height="17" viewBox="0 0 16 17" fill="none" xmlns="http://www.w3.org/2000/svg">
<path d="M14.4515 1.785C13.6208 1.105 12.6055 0.68 11.4979 0.425C11.221 0.34 9.46728 0 8.17501 0H7.9904H7.80579C6.51359 0 4.66756 0.34 4.39066 0.425C3.37534 0.68 2.36002 1.105 1.5293 1.785C-0.316729 3.315 -0.316729 5.695 0.606287 7.65C1.5293 9.775 2.54462 11.645 3.92915 13.515C5.03677 14.96 6.23669 17 7.9904 17C9.74415 17 10.9441 14.96 12.144 13.515C13.5285 11.73 14.5438 9.775 15.4669 7.65C16.2976 5.695 16.2976 3.315 14.4515 1.785ZM13.7131 6.97C12.6978 9.265 11.7748 10.965 10.5749 12.495C10.3902 12.665 10.298 12.92 10.1134 13.09C9.65189 13.77 8.54423 15.3 7.9904 15.3C7.34431 15.3 6.32899 13.855 5.77518 13.09C5.59058 12.92 5.49828 12.665 5.31368 12.495C4.20605 10.965 3.19074 9.265 2.17541 6.97C1.99081 6.375 1.2524 4.25 2.72923 2.975C3.19074 2.55 3.92915 2.295 4.85217 2.04C5.22137 2.04 6.7905 1.7 7.80579 1.7H8.08274C9.09806 1.7 10.6672 1.955 11.0363 2.04C11.9594 2.295 12.6978 2.55 13.1593 2.975C14.7285 4.25 13.99 6.375 13.7131 6.97Z" fill="white"/>
</svg>
