<svg width="17" height="18" viewBox="0 0 17 18" fill="none" xmlns="http://www.w3.org/2000/svg">
<path d="M1.75397 15.4089C2.59379 16.0776 3.61475 16.4889 4.72567 16.7289C5.00375 16.8102 6.76186 17.1264 8.05401 17.109L8.2386 17.1065L8.42319 17.104C9.71527 17.0865 11.5565 16.7216 11.8323 16.6329C12.8441 16.3642 13.8535 15.9255 14.675 15.2344C16.5002 13.6796 16.468 11.2998 15.5187 9.35742C14.5671 7.24509 13.5266 5.38897 12.1169 3.53785C10.9899 2.10794 9.76248 0.0843413 8.00894 0.108033C6.25535 0.131725 5.08309 2.18775 3.9028 3.64883C2.54251 5.45237 1.55369 7.42091 0.659439 9.55818C-0.144779 11.5242 -0.112625 13.904 1.75397 15.4089ZM2.42222 10.2144C3.40644 7.90592 4.30643 6.19361 5.48558 4.64754C5.66787 4.47506 5.75669 4.21884 5.93898 4.04636C6.39124 3.36018 7.47813 1.81536 8.0319 1.80788C8.67793 1.79915 9.71268 3.2303 10.2768 3.98775C10.4637 4.15524 10.5594 4.40897 10.7463 4.57646C11.8745 6.09136 12.9127 7.77749 13.9589 10.0586C14.1515 10.651 14.9186 12.7658 13.4591 14.0607C13.0034 14.4919 12.2685 14.7568 11.349 15.0243C10.9798 15.0293 9.41543 15.3904 8.40023 15.4041L8.1233 15.4079C7.10808 15.4216 5.53563 15.1878 5.16538 15.1078C4.23897 14.8653 3.49715 14.6203 3.02997 14.2016C1.44374 12.9479 2.15341 10.8131 2.42222 10.2144Z" fill="white"/>
</svg>
